<svg id="visual" viewBox="0 0 900 900" width="900" height="900" xmlns="http://www.w3.org/2000/svg" xmlns:xlink="http://www.w3.org/1999/xlink" version="1.1"><g stroke-width="3" stroke-linejoin="bevel"><path d="M485 411L588 472L578 423Z" fill="#d8e7e3" stroke="#398b79"></path><path d="M485 411L498 531L588 472Z" fill="#8bb8ad" stroke="#398b79"></path><path d="M498 531L625 564L588 472Z" fill="#c5dbd5" stroke="#398b79"></path><path d="M485 411L390 470L498 531Z" fill="#9ec4ba" stroke="#398b79"></path><path d="M498 531L377 612L508 586Z" fill="#9ec4ba" stroke="#398b79"></path><path d="M682 430L594 339L578 423Z" fill="#8bb8ad" stroke="#398b79"></path><path d="M578 423L594 339L485 411Z" fill="#9ec4ba" stroke="#398b79"></path><path d="M485 411L389 376L390 470Z" fill="#9ec4ba" stroke="#398b79"></path><path d="M508 586L625 564L498 531Z" fill="#c5dbd5" stroke="#398b79"></path><path d="M588 472L682 430L578 423Z" fill="#9ec4ba" stroke="#398b79"></path><path d="M625 564L682 430L588 472Z" fill="#64a292" stroke="#398b79"></path><path d="M503 298L389 376L485 411Z" fill="#9ec4ba" stroke="#398b79"></path><path d="M594 339L503 298L485 411Z" fill="#77ada0" stroke="#398b79"></path><path d="M503 298L361 339L389 376Z" fill="#8bb8ad" stroke="#398b79"></path><path d="M263 397L285 500L390 470Z" fill="#d8e7e3" stroke="#398b79"></path><path d="M625 564L730 485L682 430Z" fill="#4f9686" stroke="#398b79"></path><path d="M285 500L377 612L390 470Z" fill="#4f9686" stroke="#398b79"></path><path d="M390 470L377 612L498 531Z" fill="#ffffff" stroke="#398b79"></path><path d="M638 735L704 638L625 564Z" fill="#8bb8ad" stroke="#398b79"></path><path d="M377 612L425 671L508 586Z" fill="#8bb8ad" stroke="#398b79"></path><path d="M682 430L725 324L594 339Z" fill="#4f9686" stroke="#398b79"></path><path d="M594 339L619 204L503 298Z" fill="#8bb8ad" stroke="#398b79"></path><path d="M815 407L725 324L682 430Z" fill="#398b79" stroke="#398b79"></path><path d="M263 397L390 470L389 376Z" fill="#77ada0" stroke="#398b79"></path><path d="M377 612L330 680L425 671Z" fill="#398b79" stroke="#398b79"></path><path d="M638 735L625 564L508 586Z" fill="#64a292" stroke="#398b79"></path><path d="M625 564L704 638L730 485Z" fill="#d8e7e3" stroke="#398b79"></path><path d="M788 610L779 465L730 485Z" fill="#8bb8ad" stroke="#398b79"></path><path d="M730 485L779 465L682 430Z" fill="#64a292" stroke="#398b79"></path><path d="M398 199L305 327L361 339Z" fill="#64a292" stroke="#398b79"></path><path d="M361 339L263 397L389 376Z" fill="#8bb8ad" stroke="#398b79"></path><path d="M425 671L492 723L508 586Z" fill="#4f9686" stroke="#398b79"></path><path d="M285 500L311 618L377 612Z" fill="#d8e7e3" stroke="#398b79"></path><path d="M425 671L468 786L492 723Z" fill="#b1d0c7" stroke="#398b79"></path><path d="M305 327L263 397L361 339Z" fill="#8bb8ad" stroke="#398b79"></path><path d="M725 324L619 204L594 339Z" fill="#ebf3f1" stroke="#398b79"></path><path d="M503 298L398 199L361 339Z" fill="#d8e7e3" stroke="#398b79"></path><path d="M619 204L465 187L503 298Z" fill="#9ec4ba" stroke="#398b79"></path><path d="M465 187L398 199L503 298Z" fill="#ebf3f1" stroke="#398b79"></path><path d="M900 428L815 407L779 465Z" fill="#8bb8ad" stroke="#398b79"></path><path d="M779 465L815 407L682 430Z" fill="#9ec4ba" stroke="#398b79"></path><path d="M725 324L738 218L619 204Z" fill="#ffffff" stroke="#398b79"></path><path d="M311 618L330 680L377 612Z" fill="#398b79" stroke="#398b79"></path><path d="M492 723L638 735L508 586Z" fill="#ffffff" stroke="#398b79"></path><path d="M722 713L788 610L704 638Z" fill="#4f9686" stroke="#398b79"></path><path d="M704 638L788 610L730 485Z" fill="#64a292" stroke="#398b79"></path><path d="M815 407L808 337L725 324Z" fill="#d8e7e3" stroke="#398b79"></path><path d="M638 735L722 713L704 638Z" fill="#9ec4ba" stroke="#398b79"></path><path d="M808 337L738 218L725 324Z" fill="#ebf3f1" stroke="#398b79"></path><path d="M380 811L468 786L425 671Z" fill="#8bb8ad" stroke="#398b79"></path><path d="M492 723L620 780L638 735Z" fill="#b1d0c7" stroke="#398b79"></path><path d="M638 735L672 820L722 713Z" fill="#4f9686" stroke="#398b79"></path><path d="M619 204L520 127L465 187Z" fill="#b1d0c7" stroke="#398b79"></path><path d="M465 187L430 85L398 199Z" fill="#d8e7e3" stroke="#398b79"></path><path d="M571 63L520 127L619 204Z" fill="#d8e7e3" stroke="#398b79"></path><path d="M468 786L620 780L492 723Z" fill="#ebf3f1" stroke="#398b79"></path><path d="M209 332L263 397L305 327Z" fill="#b1d0c7" stroke="#398b79"></path><path d="M209 332L192 393L263 397Z" fill="#8bb8ad" stroke="#398b79"></path><path d="M263 397L192 393L285 500Z" fill="#d8e7e3" stroke="#398b79"></path><path d="M285 500L219 639L311 618Z" fill="#ebf3f1" stroke="#398b79"></path><path d="M311 618L219 639L330 680Z" fill="#4f9686" stroke="#398b79"></path><path d="M226 221L209 332L305 327Z" fill="#d8e7e3" stroke="#398b79"></path><path d="M192 393L181 530L285 500Z" fill="#9ec4ba" stroke="#398b79"></path><path d="M181 530L219 639L285 500Z" fill="#64a292" stroke="#398b79"></path><path d="M330 680L380 811L425 671Z" fill="#77ada0" stroke="#398b79"></path><path d="M808 337L780 189L738 218Z" fill="#d8e7e3" stroke="#398b79"></path><path d="M738 218L665 78L619 204Z" fill="#c5dbd5" stroke="#398b79"></path><path d="M315 125L286 171L398 199Z" fill="#9ec4ba" stroke="#398b79"></path><path d="M398 199L286 171L305 327Z" fill="#398b79" stroke="#398b79"></path><path d="M815 407L900 428L808 337Z" fill="#398b79" stroke="#398b79"></path><path d="M808 337L900 283L780 189Z" fill="#398b79" stroke="#398b79"></path><path d="M900 537L900 428L779 465Z" fill="#ebf3f1" stroke="#398b79"></path><path d="M294 826L380 811L330 680Z" fill="#d8e7e3" stroke="#398b79"></path><path d="M575 900L672 820L620 780Z" fill="#d8e7e3" stroke="#398b79"></path><path d="M900 624L900 537L788 610Z" fill="#c5dbd5" stroke="#398b79"></path><path d="M788 610L900 537L779 465Z" fill="#8bb8ad" stroke="#398b79"></path><path d="M286 171L226 221L305 327Z" fill="#398b79" stroke="#398b79"></path><path d="M209 332L124 383L192 393Z" fill="#64a292" stroke="#398b79"></path><path d="M520 127L430 85L465 187Z" fill="#398b79" stroke="#398b79"></path><path d="M474 0L430 85L520 127Z" fill="#64a292" stroke="#398b79"></path><path d="M620 780L672 820L638 735Z" fill="#4f9686" stroke="#398b79"></path><path d="M722 713L805 731L788 610Z" fill="#8bb8ad" stroke="#398b79"></path><path d="M575 900L620 780L468 786Z" fill="#398b79" stroke="#398b79"></path><path d="M788 789L805 731L722 713Z" fill="#4f9686" stroke="#398b79"></path><path d="M430 85L315 125L398 199Z" fill="#b1d0c7" stroke="#398b79"></path><path d="M286 171L236 130L226 221Z" fill="#c5dbd5" stroke="#398b79"></path><path d="M181 530L137 534L219 639Z" fill="#b1d0c7" stroke="#398b79"></path><path d="M192 393L137 534L181 530Z" fill="#ebf3f1" stroke="#398b79"></path><path d="M124 383L137 534L192 393Z" fill="#c5dbd5" stroke="#398b79"></path><path d="M665 78L571 63L619 204Z" fill="#b1d0c7" stroke="#398b79"></path><path d="M780 189L665 78L738 218Z" fill="#64a292" stroke="#398b79"></path><path d="M75 626L186 684L219 639Z" fill="#64a292" stroke="#398b79"></path><path d="M219 639L186 684L330 680Z" fill="#c5dbd5" stroke="#398b79"></path><path d="M805 731L900 624L788 610Z" fill="#77ada0" stroke="#398b79"></path><path d="M72 281L124 383L209 332Z" fill="#77ada0" stroke="#398b79"></path><path d="M900 428L900 283L808 337Z" fill="#77ada0" stroke="#398b79"></path><path d="M780 189L809 95L665 78Z" fill="#77ada0" stroke="#398b79"></path><path d="M672 820L788 789L722 713Z" fill="#c5dbd5" stroke="#398b79"></path><path d="M805 731L900 739L900 624Z" fill="#b1d0c7" stroke="#398b79"></path><path d="M186 684L294 826L330 680Z" fill="#b1d0c7" stroke="#398b79"></path><path d="M380 811L486 900L468 786Z" fill="#b1d0c7" stroke="#398b79"></path><path d="M315 125L236 130L286 171Z" fill="#77ada0" stroke="#398b79"></path><path d="M226 221L72 281L209 332Z" fill="#4f9686" stroke="#398b79"></path><path d="M218 0L236 130L315 125Z" fill="#4f9686" stroke="#398b79"></path><path d="M900 283L900 224L780 189Z" fill="#b1d0c7" stroke="#398b79"></path><path d="M370 900L486 900L380 811Z" fill="#8bb8ad" stroke="#398b79"></path><path d="M672 820L699 900L788 789Z" fill="#398b79" stroke="#398b79"></path><path d="M486 900L575 900L468 786Z" fill="#d8e7e3" stroke="#398b79"></path><path d="M900 133L809 95L780 189Z" fill="#ebf3f1" stroke="#398b79"></path><path d="M615 0L474 0L571 63Z" fill="#d8e7e3" stroke="#398b79"></path><path d="M615 0L571 63L665 78Z" fill="#398b79" stroke="#398b79"></path><path d="M571 63L474 0L520 127Z" fill="#398b79" stroke="#398b79"></path><path d="M430 85L327 0L315 125Z" fill="#ebf3f1" stroke="#398b79"></path><path d="M900 791L805 731L788 789Z" fill="#4f9686" stroke="#398b79"></path><path d="M900 791L900 739L805 731Z" fill="#8bb8ad" stroke="#398b79"></path><path d="M708 0L615 0L665 78Z" fill="#398b79" stroke="#398b79"></path><path d="M294 826L370 900L380 811Z" fill="#64a292" stroke="#398b79"></path><path d="M575 900L699 900L672 820Z" fill="#c5dbd5" stroke="#398b79"></path><path d="M474 0L394 0L430 85Z" fill="#ebf3f1" stroke="#398b79"></path><path d="M186 684L226 831L294 826Z" fill="#8bb8ad" stroke="#398b79"></path><path d="M294 826L292 900L370 900Z" fill="#4f9686" stroke="#398b79"></path><path d="M86 738L226 831L186 684Z" fill="#9ec4ba" stroke="#398b79"></path><path d="M90 136L136 179L236 130Z" fill="#b1d0c7" stroke="#398b79"></path><path d="M236 130L136 179L226 221Z" fill="#ffffff" stroke="#398b79"></path><path d="M0 515L75 626L137 534Z" fill="#64a292" stroke="#398b79"></path><path d="M137 534L75 626L219 639Z" fill="#398b79" stroke="#398b79"></path><path d="M0 515L137 534L124 383Z" fill="#9ec4ba" stroke="#398b79"></path><path d="M136 179L72 281L226 221Z" fill="#398b79" stroke="#398b79"></path><path d="M769 0L708 0L665 78Z" fill="#8bb8ad" stroke="#398b79"></path><path d="M900 224L900 133L780 189Z" fill="#9ec4ba" stroke="#398b79"></path><path d="M809 95L769 0L665 78Z" fill="#d8e7e3" stroke="#398b79"></path><path d="M226 831L292 900L294 826Z" fill="#c5dbd5" stroke="#398b79"></path><path d="M812 900L900 791L788 789Z" fill="#77ada0" stroke="#398b79"></path><path d="M394 0L327 0L430 85Z" fill="#d8e7e3" stroke="#398b79"></path><path d="M900 0L769 0L809 95Z" fill="#77ada0" stroke="#398b79"></path><path d="M75 626L86 738L186 684Z" fill="#c5dbd5" stroke="#398b79"></path><path d="M226 831L215 900L292 900Z" fill="#4f9686" stroke="#398b79"></path><path d="M699 900L812 900L788 789Z" fill="#ebf3f1" stroke="#398b79"></path><path d="M0 392L0 515L124 383Z" fill="#77ada0" stroke="#398b79"></path><path d="M75 626L0 716L86 738Z" fill="#4f9686" stroke="#398b79"></path><path d="M0 339L124 383L72 281Z" fill="#4f9686" stroke="#398b79"></path><path d="M0 339L0 392L124 383Z" fill="#c5dbd5" stroke="#398b79"></path><path d="M126 900L215 900L226 831Z" fill="#4f9686" stroke="#398b79"></path><path d="M0 188L0 339L72 281Z" fill="#8bb8ad" stroke="#398b79"></path><path d="M218 0L90 136L236 130Z" fill="#c5dbd5" stroke="#398b79"></path><path d="M136 179L0 188L72 281Z" fill="#d8e7e3" stroke="#398b79"></path><path d="M327 0L218 0L315 125Z" fill="#77ada0" stroke="#398b79"></path><path d="M0 515L0 632L75 626Z" fill="#8bb8ad" stroke="#398b79"></path><path d="M86 738L71 802L226 831Z" fill="#9ec4ba" stroke="#398b79"></path><path d="M0 780L71 802L86 738Z" fill="#8bb8ad" stroke="#398b79"></path><path d="M812 900L900 900L900 791Z" fill="#c5dbd5" stroke="#398b79"></path><path d="M0 632L0 716L75 626Z" fill="#b1d0c7" stroke="#398b79"></path><path d="M90 136L0 188L136 179Z" fill="#ffffff" stroke="#398b79"></path><path d="M0 96L0 188L90 136Z" fill="#b1d0c7" stroke="#398b79"></path><path d="M900 133L900 0L809 95Z" fill="#ebf3f1" stroke="#398b79"></path><path d="M0 900L126 900L71 802Z" fill="#9ec4ba" stroke="#398b79"></path><path d="M71 802L126 900L226 831Z" fill="#ffffff" stroke="#398b79"></path><path d="M0 716L0 780L86 738Z" fill="#64a292" stroke="#398b79"></path><path d="M218 0L100 0L90 136Z" fill="#64a292" stroke="#398b79"></path><path d="M100 0L0 96L90 136Z" fill="#8bb8ad" stroke="#398b79"></path><path d="M0 780L0 900L71 802Z" fill="#d8e7e3" stroke="#398b79"></path><path d="M100 0L0 0L0 96Z" fill="#398b79" stroke="#398b79"></path></g></svg>